<?xml version="1.0" encoding="UTF-8"?>
<svg version="1.1" xmlns="http://www.w3.org/2000/svg" width="60" height="60">
<path d="M0 0 C0.7811618 -0.0127597 1.56232361 -0.02551941 2.36715698 -0.03866577 C3.20264069 -0.04089142 4.03812439 -0.04311707 4.89892578 -0.04541016 C5.76687775 -0.05206696 6.63482971 -0.05872375 7.52908325 -0.06558228 C9.36311732 -0.07569503 11.19718808 -0.08039972 13.03125 -0.08007812 C15.82760717 -0.08444667 18.62237945 -0.1207668 21.41845703 -0.15869141 C23.20360791 -0.16456091 24.98876625 -0.16852941 26.77392578 -0.17041016 C28.02107864 -0.19196671 28.02107864 -0.19196671 29.29342651 -0.21395874 C34.65579011 -0.17205724 37.79174198 0.62692637 41.96923828 4.29052734 C46.27170659 9.2137855 46.56174477 13.17285136 46.50048828 19.41552734 C46.50431519 20.28064941 46.50814209 21.14577148 46.51208496 22.03710938 C46.51479693 23.85922414 46.50748594 25.6813783 46.49072266 27.50341797 C46.46930169 30.28230104 46.4905475 33.05859907 46.51611328 35.83740234 C46.51346988 37.61344968 46.50834463 39.38949542 46.50048828 41.16552734 C46.50858521 41.99068848 46.51668213 42.81584961 46.52502441 43.66601562 C46.43898257 48.99566213 45.60009452 52.13578609 41.96923828 56.29052734 C37.04598013 60.59299566 33.08691426 60.88303383 26.84423828 60.82177734 C25.54655518 60.8275177 25.54655518 60.8275177 24.22265625 60.83337402 C22.40054149 60.83608599 20.57838732 60.828775 18.75634766 60.81201172 C15.97746459 60.79059076 13.20116655 60.81183657 10.42236328 60.83740234 C8.64631594 60.83475894 6.87027021 60.8296337 5.09423828 60.82177734 C4.26907715 60.82987427 3.44391602 60.83797119 2.59375 60.84631348 C-2.7358965 60.76027163 -5.87602047 59.92138358 -10.03076172 56.29052734 C-14.29479229 51.39406274 -14.64614225 47.44349644 -14.63232422 41.23583984 C-14.64089447 40.37546112 -14.64946472 39.5150824 -14.65829468 38.62863159 C-14.66974021 36.81495673 -14.67081199 35.0011901 -14.66210938 33.1875 C-14.65579455 30.42986409 -14.70271599 27.67653851 -14.75341797 24.91943359 C-14.75796554 23.14990771 -14.75937021 21.38037039 -14.75732422 19.61083984 C-14.77574371 18.79600128 -14.79416321 17.98116272 -14.81314087 17.14163208 C-14.72335759 11.51388235 -13.19464363 8.30274877 -9.70834351 3.90817261 C-6.73835775 1.04429829 -4.08840655 0.04559337 0 0 Z " fill="#FDFDFB" transform="translate(14.03076171875,-0.29052734375)"/>
<path d="M0 0 C0.928125 -0.2475 1.85625 -0.495 2.8125 -0.75 C6 -1 6 -1 8.875 1.3125 C11 4 11 4 11 6 C4.25 6.125 4.25 6.125 2 5 C3.72567195 9.14161268 5.710293 10.56778184 9.6875 12.3125 C11.11899163 12.89011943 12.554773 13.45766115 14 14 C13.01 14.495 13.01 14.495 12 15 C9.64018187 14.06421005 7.30368736 13.06652192 5 12 C5.10441406 12.94359375 5.10441406 12.94359375 5.2109375 13.90625 C5.59044672 19.90611009 4.9317595 23.61671455 0.98046875 28.234375 C-3.10134463 31.87338811 -7.99785798 35.08113897 -13.6015625 34.9296875 C-16.85236193 33.66960564 -17.63815235 32.07805635 -19.3125 29.0625 C-19.82425781 28.16660156 -20.33601563 27.27070312 -20.86328125 26.34765625 C-22 24 -22 24 -22 22 C-22.99 22 -23.98 22 -25 22 C-25 21.34 -25 20.68 -25 20 C-24.34 20 -23.68 20 -23 20 C-23.33 18.02 -23.66 16.04 -24 14 C-25.65 14.66 -27.3 15.32 -29 16 C-29 16.99 -29 17.98 -29 19 C-29.66 19 -30.32 19 -31 19 C-30.8125 16.625 -30.8125 16.625 -30 14 C-27.11090151 12.40339294 -25.30941204 12 -22 12 C-21.79375 11.278125 -21.5875 10.55625 -21.375 9.8125 C-18.60508709 4.14676906 -13.31811949 1.43644037 -7.9296875 -1.3984375 C-4.85916334 -2.35564544 -2.78814634 -1.39407317 0 0 Z " fill="#EDB634" transform="translate(38,14)"/>
<path d="M0 0 C-3.81656017 5.4704029 -8.48662885 9.13601086 -15 11 C-17.53865975 10.23154083 -18.65914277 9.44606008 -20.265625 7.34375 C-23 2.22222222 -23 2.22222222 -23 0 C-19.91722144 -0.1974877 -16.8337715 -0.38123332 -13.75 -0.5625 C-12.87730469 -0.61857422 -12.00460938 -0.67464844 -11.10546875 -0.73242188 C-10.26113281 -0.78076172 -9.41679687 -0.82910156 -8.546875 -0.87890625 C-7.77182617 -0.9260376 -6.99677734 -0.97316895 -6.19824219 -1.02172852 C-3.96887415 -0.99969234 -2.13101433 -0.6303897 0 0 Z " fill="#F9C02F" transform="translate(41,37)"/>
<path d="M0 0 C0.928125 -0.2475 1.85625 -0.495 2.8125 -0.75 C6 -1 6 -1 8.875 1.3125 C11 4 11 4 11 6 C4.25 6.125 4.25 6.125 2 5 C1.67 5.66 1.34 6.32 1 7 C-1.475 3.535 -1.475 3.535 -4 0 C-5.92386845 0.88026056 -7.83885958 1.77993691 -9.75 2.6875 C-10.81734375 3.18636719 -11.8846875 3.68523438 -12.984375 4.19921875 C-16.24653762 6.14722001 -17.96199796 7.8084119 -20 11 C-20.67890061 13.41758216 -20.67890061 13.41758216 -20.75 15.8125 C-20.80671875 16.60269531 -20.8634375 17.39289062 -20.921875 18.20703125 C-20.94765625 18.79871094 -20.9734375 19.39039062 -21 20 C-20.01 20.66 -19.02 21.32 -18 22 C-18.99 22 -19.98 22 -21 22 C-21.33 22.66 -21.66 23.32 -22 24 C-22 23.34 -22 22.68 -22 22 C-22.99 22 -23.98 22 -25 22 C-25 21.34 -25 20.68 -25 20 C-24.34 20 -23.68 20 -23 20 C-23.33 18.02 -23.66 16.04 -24 14 C-25.65 14.66 -27.3 15.32 -29 16 C-29 16.99 -29 17.98 -29 19 C-29.66 19 -30.32 19 -31 19 C-30.8125 16.625 -30.8125 16.625 -30 14 C-27.11090151 12.40339294 -25.30941204 12 -22 12 C-21.79375 11.278125 -21.5875 10.55625 -21.375 9.8125 C-18.60508709 4.14676906 -13.31811949 1.43644037 -7.9296875 -1.3984375 C-4.85916334 -2.35564544 -2.78814634 -1.39407317 0 0 Z " fill="#343331" transform="translate(38,14)"/>
<path d="M0 0 C0.39832031 0.44988281 0.79664062 0.89976563 1.20703125 1.36328125 C3.25193824 3.22998284 5.14162531 4.11749469 7.6875 5.1875 C8.49574219 5.53167969 9.30398437 5.87585938 10.13671875 6.23046875 C10.75160156 6.48441406 11.36648437 6.73835938 12 7 C11.34 7.33 10.68 7.66 10 8 C7.64018187 7.06421005 5.30368736 6.06652192 3 5 C3.06960937 5.6290625 3.13921875 6.258125 3.2109375 6.90625 C3.59044672 12.90611009 2.9317595 16.61671455 -1.01953125 21.234375 C-5.09502459 24.86775368 -10.02350587 28.15037266 -15.62890625 27.8671875 C-18.56485456 26.79341398 -19.31820559 25.73612519 -20.875 23.0625 C-21.30554688 22.35222656 -21.73609375 21.64195313 -22.1796875 20.91015625 C-22.45039063 20.27980469 -22.72109375 19.64945313 -23 19 C-22.67 18.34 -22.34 17.68 -22 17 C-20.02 19.97 -18.04 22.94 -16 26 C-12.9009156 24.76036624 -9.88058848 23.5511812 -6.875 22.125 C-6.21242188 21.81820312 -5.54984375 21.51140625 -4.8671875 21.1953125 C-2.51986213 19.84630743 -2.51986213 19.84630743 0 16 C-6.27 16 -12.54 16 -19 16 C-19 15.67 -19 15.34 -19 15 C-12.4 14.34 -5.8 13.68 1 13 C1.36380344 4.76802948 1.36380344 4.76802948 0 0 Z " fill="#221D13" transform="translate(40,21)"/>
<path d="M0 0 C3.3 0.99 6.6 1.98 10 3 C9.67 4.32 9.34 5.64 9 7 C8.01 7.495 8.01 7.495 7 8 C6.01 9.485 6.01 9.485 5 11 C5 10.34 5 9.68 5 9 C3.35 9.33 1.7 9.66 0 10 C0 6.7 0 3.4 0 0 Z " fill="#DCD4BF" transform="translate(43,26)"/>
<path d="M0 0 C0 2.31 0 4.62 0 7 C-0.66 7 -1.32 7 -2 7 C-2.33 7.66 -2.66 8.32 -3 9 C-4.32 7.68 -5.64 6.36 -7 5 C-6.67 4.01 -6.34 3.02 -6 2 C-1.78947368 0 -1.78947368 0 0 0 Z " fill="#EBEBEB" transform="translate(15,27)"/>
<path d="M0 0 C1 3 1 3 0.875 6.0625 C0.91625 7.031875 0.9575 8.00125 1 9 C1.99 9.66 2.98 10.32 4 11 C3.01 11 2.02 11 1 11 C0.67 11.66 0.34 12.32 0 13 C0 12.34 0 11.68 0 11 C-0.99 11 -1.98 11 -3 11 C-3 10.34 -3 9.68 -3 9 C-2.34 9 -1.68 9 -1 9 C-1.33 7.02 -1.66 5.04 -2 3 C-3.65 3.66 -5.3 4.32 -7 5 C-7 5.99 -7 6.98 -7 8 C-7.66 8 -8.32 8 -9 8 C-9 5.6875 -9 5.6875 -8 3 C-5.44481903 1.61706907 -2.79133871 0.78208351 0 0 Z " fill="#272726" transform="translate(16,25)"/>
<path d="M0 0 C0.66 0.33 1.32 0.66 2 1 C2 1.99 2 2.98 2 4 C1.01 4.33 0.02 4.66 -1 5 C-3.34264206 8.24365824 -4.43589129 11.05123902 -5 15 C-5.33 15 -5.66 15 -6 15 C-5.83560987 8.27494919 -4.78944649 4.78944649 0 0 Z " fill="#E5D9A9" transform="translate(22,19)"/>
<path d="M0 0 C1.98 0 3.96 0 6 0 C6.66 1.32 7.32 2.64 8 4 C5.125 3.6875 5.125 3.6875 2 3 C1.34 2.01 0.68 1.02 0 0 Z " fill="#F4F4F4" transform="translate(39,15)"/>
<path d="M0 0 C2.31 0.33 4.62 0.66 7 1 C7 1.66 7 2.32 7 3 C6.01 3.495 6.01 3.495 5 4 C4.01 5.485 4.01 5.485 3 7 C3 6.34 3 5.68 3 5 C2.01 5.33 1.02 5.66 0 6 C0.185625 5.38125 0.37125 4.7625 0.5625 4.125 C1.23686176 1.95839822 1.23686176 1.95839822 0 0 Z " fill="#3A3A3A" transform="translate(45,30)"/>
</svg>
